<?xml version="1.0" encoding="UTF-8"?>
<svg id="Calque_1" data-name="Calque 1" xmlns="http://www.w3.org/2000/svg" viewBox="0 0 435.39 225.13">
  <defs>
    <style>
      .cls-1 {
        fill: #f9f2f2;
      }

      .cls-1, .cls-2, .cls-3, .cls-4, .cls-5, .cls-6, .cls-7, .cls-8, .cls-9, .cls-10, .cls-11, .cls-12 {
        stroke-width: 0px;
      }

      .cls-2 {
        fill: #87bef9;
      }

      .cls-3 {
        fill: #f9f7f7;
      }

      .cls-4 {
        fill: #e4d2aa;
      }

      .cls-5 {
        fill: #f7f5f5;
      }

      .cls-6 {
        fill: #979797;
      }

      .cls-7 {
        fill: #363635;
      }

      .cls-8 {
        fill: #f8dc9b;
      }

      .cls-9 {
        fill: #fce09f;
      }

      .cls-10 {
        fill: #353535;
      }

      .cls-11 {
        fill: #fbde9d;
      }

      .cls-12 {
        fill: #353637;
      }
    </style>
  </defs>
  <g>
    <path class="cls-10" d="M112.23,164.28c-6.07-.11-8.57-4.59-10.58-8.19l-.48-.86c-6.84-12.05-13.71-24.08-20.58-36.12l-3.71-6.5c0,3.09,0,6.18,0,9.27-.01,11.79-.02,23.99.06,35.98.01,1.44-.13,3.07-1.25,4.2-.79.8-1.9,1.19-3.38,1.19-.24,0-.49,0-.77-.03-1.73-.13-3.42-.19-5.04-.19s-3.23.07-4.75.19c-.39.03-.76.05-1.09.05-1.6,0-2.78-.41-3.62-1.25-1.22-1.22-1.37-3.01-1.36-4.6.11-20.52.1-41.38.09-61.56,0-6.19,0-18.91,0-18.91,0-.27,0-.54,0-.82.12-6.16,3.09-10.72,7.76-11.89.99-.25,1.98-.38,2.92-.38,4.11,0,7.5,2.28,10.08,6.77,8.22,14.33,16.43,28.67,24.64,43.01l10.49,18.33c.25.43.5.86.75,1.3.12-.25.24-.49.37-.71,12.62-21.86,24.9-43.24,35.25-61.26,1.35-2.35,2.78-4.58,5.39-6.01,1.66-.91,3.49-1.39,5.31-1.39,5.31,0,9.65,3.88,10.32,9.24.24,1.9.25,3.79.26,5.62,0,.8,0,1.61.03,2.41l.02,65.81c-.01,1.17-.04,2.31-.06,3.45-.05,2.64-.11,5.37-.02,8.02.03,1.03-.04,2.51-1.09,3.59-1.02,1.05-2.4,1.17-3.35,1.17-.12,0-.25,0-.39,0-2.04-.07-4.05-.11-5.96-.11s-3.94.04-5.81.12c-.14,0-.42,0-.42,0-.53,0-2.09,0-3.19-1.11-1.01-1.02-1.14-2.4-1.14-3.62.04-7.23-.01-14.58-.06-21.7-.02-2.57-.04-5.14-.05-7.71v-15.94l-4.57,8.49-5.44,9.45c-4.52,7.84-9.2,15.96-13.75,23.96l-.4.71c-2.25,4-4.81,8.53-11.16,8.53h-.24Z"/>
    <path class="cls-3" d="M66.43,65.87c3.32,0,6.13,1.9,8.34,5.76,11.73,20.44,23.42,40.89,35.13,61.34.68,1.19,1.38,2.36,2.13,3.66,1.55-.5,1.83-1.99,2.45-3.07,11.78-20.41,23.52-40.83,35.25-61.27,1.19-2.07,2.43-4.06,4.62-5.26,1.42-.78,2.91-1.14,4.35-1.14,4.09,0,7.77,2.91,8.33,7.48.32,2.59.2,5.23.28,7.84,0,21.91.01,43.83.02,65.75-.04,3.85-.2,7.7-.08,11.54.07,2.04-.6,2.7-2.44,2.7-.1,0-.21,0-.32,0-2.01-.07-4.02-.11-6.03-.11-1.97,0-3.93.04-5.89.12-.11,0-.23,0-.33,0-1.88,0-2.34-.76-2.33-2.72.05-9.81-.06-19.62-.11-29.42v-22.49c-.21-.06-.42-.12-.64-.19-2.56,4.76-5.13,9.53-7.69,14.29-6.4,11.12-12.83,22.22-19.17,33.37-2.29,4.02-4.31,8.24-9.83,8.24-.07,0-.13,0-.2,0-5.32-.1-7.19-4.22-9.36-8.04-8.56-15.07-17.16-30.12-25.75-45.18-.53-.93-1.11-1.84-2.28-2.64v3.52c0,15.98-.06,31.95.06,47.93.02,2.34-.46,3.37-2.63,3.37-.19,0-.4,0-.62-.02-1.72-.12-3.45-.19-5.19-.19-1.64,0-3.29.06-4.92.2-.33.03-.64.04-.93.04-2.32,0-3-1-2.98-3.84.15-26.71.08-53.42.08-80.13,0-.37,0-.75,0-1.12.1-5.26,2.47-9.04,6.25-9.99.84-.21,1.65-.32,2.43-.32M66.43,61.87c-1.1,0-2.25.15-3.4.43-5.58,1.4-9.14,6.68-9.27,13.79,0,.29,0,.58,0,.87v.33c0,6.19,0,12.37,0,18.56.01,20.17.02,41.04-.09,61.55-.01,1.88.2,4.27,1.94,6.02,1.83,1.84,4.25,1.84,5.04,1.84.39,0,.81-.02,1.26-.06,1.46-.12,3-.19,4.58-.19,1.57,0,3.21.06,4.9.18.33.02.63.03.91.03,2.01,0,3.63-.6,4.8-1.78,1.86-1.87,1.84-4.5,1.83-5.62-.09-11.99-.07-24.19-.06-35.98,0-.57,0-1.15,0-1.72,6.75,11.82,13.72,24.04,20.56,36.08.16.28.32.57.48.85,2.14,3.83,5.07,9.08,12.29,9.22.09,0,.18,0,.27,0,7.52,0,10.63-5.52,12.9-9.55l.4-.71c4.54-7.98,9.2-16.07,13.72-23.89,1.82-3.15,3.63-6.3,5.45-9.46l.05-.1.81-1.5v8c.01,2.6.03,5.18.05,7.76.05,7.1.1,14.44.06,21.65,0,.9-.02,3.3,1.72,5.05,1.69,1.7,3.89,1.7,4.61,1.7.16,0,.32,0,.5-.01,1.85-.08,3.77-.12,5.73-.12,1.89,0,3.87.04,5.89.11.16,0,.31,0,.46,0,.76,0,3.07,0,4.79-1.78,1.76-1.81,1.68-4.25,1.65-5.05-.09-2.6-.03-5.19.02-7.92.02-1.15.05-2.29.06-3.44v-26.16s-.02-39.63-.02-39.63v-.12c-.03-.79-.03-1.57-.04-2.36-.01-1.89-.02-3.84-.27-5.86-.79-6.37-5.97-10.99-12.3-10.99-2.15,0-4.32.56-6.27,1.63-3.06,1.68-4.72,4.27-6.16,6.77-10.01,17.44-21.82,37.98-33.9,58.93l-9.51-16.61c-8.2-14.33-16.41-28.66-24.62-42.98-3.69-6.42-8.46-7.77-11.81-7.77h0Z"/>
  </g>
  <g>
    <path class="cls-10" d="M321.7,163.27c-6.2,0-12.49-.05-18.58-.09l-7.17-.05c-7.67-.05-11.83-4.14-12.03-11.83-.12-4.53-.14-9.12-.16-13.57,0-1.98-.02-3.96-.03-5.93l-.07-34.13.07-6.08c.05-4.59.1-9.19.16-13.78.12-8.85,4.12-12.81,12.97-12.83,4.73-.01,9.46-.02,14.19-.02h22.01s6.15,0,6.15,0c24.02,0,41.45,16.03,42.44,38.98.04,1.03.09,2.07.14,3.11.42,8.87.86,18.04-1.71,26.95-5.03,17.49-20.17,28.63-39.49,29.08-5.64.13-11.83.2-18.9.2ZM305.08,142.08c2.41-.03,4.78-.03,7.15-.03s4.57,0,6.86.02c2.28,0,4.56.02,6.84.02,4.58,0,10.6-.03,16.6-.25,10.15-.38,17.6-7.94,18.11-18.39.28-5.74.21-11.6.1-17.08-.26-12.29-7.99-20.04-20.19-20.23-3.45-.05-7.1-.08-11.82-.08-2.28,0-4.56,0-6.84.01-2.28,0-4.57.01-6.85.01-3.11,0-6.21,0-9.31-.04h-.1c-.36,0-.58.02-.71.05-.02.15-.05.43-.04.89.09,6.58.08,13.26.06,19.73,0,2.42-.01,4.84-.01,7.26v7.01c0,6.78,0,13.56-.02,20.33,0,.27,0,.56,0,.78.05,0,.11,0,.18,0Z"/>
    <path class="cls-1" d="M311.02,66.96c7.36,0,14.72,0,22.09,0,2.03,0,4.07,0,6.1,0h.05c24.09,0,39.51,16.63,40.4,37.06.43,9.84,1.28,19.81-1.48,29.42-4.82,16.73-19.02,27.2-37.61,27.63-6.28.15-12.56.19-18.84.19-8.58,0-17.17-.09-25.75-.15-6.61-.04-9.87-3.31-10.04-9.88-.17-6.49-.14-12.98-.19-19.46-.02-11.37-.04-22.75-.07-34.12.08-6.61.14-13.22.23-19.83.11-7.75,3.18-10.84,10.97-10.86,4.72-.01,9.44-.02,14.15-.02M305.08,144.08s.05,0,.07,0c2.36-.03,4.71-.03,7.07-.03,4.57,0,9.13.03,13.7.03,5.56,0,11.12-.05,16.68-.25,11.37-.42,19.48-8.92,20.03-20.29.28-5.73.22-11.48.1-17.22-.28-13.34-8.83-21.98-22.16-22.19-3.95-.06-7.9-.08-11.85-.08-4.56,0-9.13.02-13.69.02-3.1,0-6.19-.01-9.29-.04-.04,0-.08,0-.12,0-2.27,0-2.79.75-2.76,2.97.13,8.98.05,17.97.05,26.96s.02,18.22-.02,27.33c0,1.61-.05,2.79,2.18,2.79M311.02,62.96c-4.72,0-9.44,0-14.17.02-9.93.03-14.83,4.87-14.96,14.8-.06,4.57-.11,9.14-.16,13.71l-.07,6.12v.05s.07,34.12.07,34.12c.02,2,.03,3.97.03,5.95.02,4.46.04,9.06.16,13.61.23,8.7,5.34,13.72,14.02,13.78,2.4.02,4.81.03,7.21.05,6.08.05,12.37.09,18.57.09,7.08,0,13.28-.06,18.93-.19,20.23-.47,36.08-12.16,41.36-30.52,2.66-9.23,2.21-18.57,1.78-27.6-.05-1.03-.1-2.07-.14-3.1-.48-11.21-5-21.48-12.72-28.9-8.15-7.84-19.11-11.99-31.67-11.99h-.05c-2.03,0-4.06,0-6.1,0-3.68,0-7.36,0-11.04,0-3.68,0-7.36,0-11.05,0h0ZM306.9,140.07c.02-6.4.02-12.87.02-19.15v-6.96c0-2.42,0-4.85,0-7.27.01-6.11.03-12.41-.05-18.64,2.43.02,5.05.03,8.15.03,2.29,0,4.57,0,6.86-.01,2.28,0,4.56-.01,6.84-.01,4.71,0,8.35.02,11.79.08,11.18.17,17.99,7,18.23,18.27.11,5.43.18,11.25-.1,16.94-.46,9.52-6.97,16.15-16.19,16.49-5.97.22-11.97.25-16.53.25-2.28,0-4.56,0-6.84-.02-2.29,0-4.58-.02-6.86-.02-1.93,0-3.69,0-5.32.02h0Z"/>
  </g>
  <path class="cls-2" d="M285.66,97.66c.02,11.37.04,22.75.07,34.12-1.11.99-2.28,1.94-3.33,2.99-19.59,19.62-39.17,39.25-58.75,58.88-4.48,4.49-4.95,4.49-9.56-.07-5.32-5.27-10.63-10.56-15.93-15.86-3.54-3.54-3.54-4.04-.04-7.54,14.84-14.83,29.7-29.64,44.54-44.47.88-.88,1.66-1.85,2.49-2.78,5.59-.06,11.18-.19,16.76-.13,2.06.02,2.88-.56,2.8-2.73-.15-3.85-.18-7.71,0-11.56.11-2.41-.59-3.25-3.09-3.2-5.96.11-11.92-.07-17.88-.13-6.59-6.99-13.18-13.98-19.77-20.96,16.02-.05,32.05-.09,48.07-.14,4.54,4.53,9.07,9.05,13.61,13.58Z"/>
  <g>
    <path class="cls-7" d="M201.58,163.23c-.17,0-.34,0-.53-.01-1.73-.09-3.51-.14-5.43-.14s-3.78.04-5.92.13c-.15,0-.3,0-.43,0-.94,0-2.3-.12-3.3-1.16-1.04-1.07-1.12-2.56-1.09-3.59.07-2.46-.01-4.99-.09-7.44-.04-1.07-.07-2.14-.1-3.22l.24-31.29.16-.76c.38-.9.38-1.73,0-2.63l-.16-.78c0-3.4-.01-6.81-.02-10.21-.02-7.81-.05-15.88.03-23.82.09-9.58,3.92-13.32,13.66-13.35,7.91-.02,15.82-.06,23.73-.09l10.66-.04c3.19.01,6.36.03,9.53.05,5.59.03,11.18.06,16.78.06,3.21,0,6.42-.01,9.64-.04h.13c1.3,0,2.93.15,4.05,1.33s1.19,2.81,1.12,4.11c-.16,3.19-.17,6.47-.17,9.64,0,1.37,0,2.74-.01,4.11l-1.99,1.98-48.07.14-8.9-.04c-.46,0-.93.01-1.38.01-2.08,0-3.73-.07-5.05-.13-.82-.04-1.51-.07-2.07-.07-.32,0-.55.01-.71.02-.05.61.01,1.8.07,2.96.08,1.49.18,3.34.2,5.75-.3,12.89-.31,26.1,0,39.35v.13s-.04.92-.04.92l.02,12.7c-.02,1.07-.04,2.11-.07,3.15-.06,2.37-.13,4.81-.04,7.18.05,1.31-.05,2.79-1.1,3.88-.77.8-1.85,1.18-3.32,1.18Z"/>
    <path class="cls-3" d="M232.99,66.83c8.76.03,17.53.11,26.3.11,3.22,0,6.44-.01,9.66-.04.04,0,.07,0,.11,0,2.56,0,3.31.77,3.18,3.34-.24,4.6-.14,9.23-.18,13.84-16.02.05-32.05.09-48.07.14-2.96-.01-5.93-.02-8.89-.03-.48,0-.95.01-1.39.01-3.39,0-5.64-.19-7.12-.19-3.86,0-2.51,1.31-2.43,10.75-.31,13.13-.3,26.25,0,39.38-.01.31-.02.61-.04.92,0,4.26,0,8.52.01,12.78-.05,3.47-.24,6.94-.11,10.4.07,2.06-.37,3-2.42,3-.13,0-.27,0-.42-.01-1.84-.1-3.69-.14-5.53-.14-2,0-4,.05-6,.13-.12,0-.24,0-.35,0-1.82,0-2.45-.66-2.4-2.69.1-3.58-.11-7.17-.19-10.76.08-10.41.16-20.82.24-31.23.59-1.4.59-2.79,0-4.19,0-11.34-.1-22.68,0-34.02.08-8.49,3.13-11.34,11.66-11.37,11.46-.04,22.93-.09,34.39-.13M233,62.83h-.03l-10.3.04c-8.03.03-16.06.06-24.09.09-10.73.03-15.55,4.76-15.65,15.33-.07,7.96-.05,16.03-.03,23.84,0,3.4.02,6.81.02,10.21l.32,1.56c.17.4.17.67,0,1.07l-.32,1.53-.24,31.23v.12c.02,1.08.06,2.15.1,3.23.08,2.53.16,4.93.09,7.32-.02.8-.09,3.24,1.66,5.04,1.71,1.76,3.99,1.76,4.74,1.76.16,0,.34,0,.52-.01,2.11-.09,4.02-.13,5.84-.13,1.88,0,3.62.04,5.32.13.22.01.43.02.63.02,2.01,0,3.61-.6,4.76-1.79,1.79-1.85,1.7-4.39,1.66-5.34-.08-2.31-.02-4.62.04-7.06.03-1.05.06-2.09.07-3.14v-.07s0-6.39,0-6.39v-6.31s.03-.84.03-.84v-.25c-.3-13.21-.3-26.4,0-39.2v-.13c-.02-2.45-.12-4.33-.2-5.84-.01-.28-.03-.57-.04-.85.21,0,.43.02.66.03,1.34.06,3.01.13,5.14.13.45,0,.92,0,1.41-.01h2.24s6.61.03,6.61.03l42.17-.12,5.93-.02,3.99-3.96c.01-1.37.01-2.75.01-4.12,0-3.15,0-6.41.16-9.55.08-1.56,0-3.83-1.67-5.59-1.66-1.75-3.94-1.96-5.51-1.96h-.14c-3,.03-6.14.04-9.62.04-5.58,0-11.26-.03-16.76-.06-3.17-.02-6.35-.04-9.52-.05h0Z"/>
  </g>
  <path class="cls-11" d="M232.99,66.83c-11.46.04-22.93.09-34.39.13-8.53.03-11.59,2.88-11.66,11.37-.1,11.34-.01,22.68,0,34.02-.48,1.4-.47,2.79,0,4.19-.08,10.41-.16,20.82-.24,31.23-6.45-.26-12.95.76-19.35-.8,0-21.92-.01-43.83-.02-65.75,1.6-.32,2.45-1.65,3.49-2.69,15.09-15.08,30.21-30.13,45.19-45.32,1.99-2.02,2.98-1.98,4.9.03,6.56,6.84,13.28,13.54,20.07,20.15,1.97,1.91,2.17,3.19.06,5.12-2.84,2.6-5.38,5.53-8.04,8.31Z"/>
  <g>
    <path class="cls-12" d="M245.14,124.93c-2.84-.02-5.68-.05-8.53-.08-5.04-.05-10.24-.1-15.36-.1-2.38,0-4.76.01-7.14.04h-.19c-1.36,0-3.07-.16-4.22-1.38-1.14-1.23-1.18-2.94-1.08-4.29.25-3.41.25-6.97,0-10.57-.07-1.1-.05-2.7,1.04-3.87,1.07-1.15,2.59-1.31,4.08-1.31,1.08,0,2.1,0,3.11,0,6.3,0,12.7-.06,18.9-.12,2.66-.03,5.31-.05,7.97-.07,1.75.02,3.46.05,5.18.07,2.82.04,5.74.09,8.6.09,1.36,0,2.72-.01,4.07-.04h.23c1.09,0,2.67.13,3.77,1.29,1.11,1.16,1.18,2.75,1.12,4.01-.17,3.51-.17,7.23,0,11.38.04,1.01-.03,2.49-1.08,3.59s-2.56,1.22-3.6,1.22h-.13c-.98-.01-1.96-.02-2.94-.02-2.99,0-5.98.04-8.97.08-1.61.02-3.21.04-4.82.06h-.03Z"/>
    <path class="cls-5" d="M243.75,105.18c4.59.05,9.18.16,13.77.16,1.37,0,2.74-.01,4.11-.04.07,0,.13,0,.19,0,2.35,0,3.01.86,2.9,3.21-.18,3.84-.16,7.71,0,11.56.08,2.13-.71,2.73-2.69,2.73-.04,0-.07,0-.11,0-.99-.01-1.98-.01-2.96-.01-4.6,0-9.2.1-13.8.14-7.97-.06-15.94-.18-23.91-.18-2.38,0-4.77.01-7.15.04-.06,0-.11,0-.17,0-2.7,0-3.5-.78-3.3-3.53.26-3.6.25-7.24,0-10.85-.18-2.6.85-3.04,3.12-3.04.02,0,.04,0,.06,0,1.02,0,2.03,0,3.05,0,8.96,0,17.92-.12,26.89-.2M243.72,101.18c-2.67.02-5.33.05-8,.07-6.18.06-12.58.12-18.86.12-1.01,0-2.02,0-3.04,0h-.08c-1.11,0-3.72,0-5.54,1.94-1.81,1.94-1.63,4.52-1.58,5.37.24,3.51.24,6.97,0,10.29-.12,1.62-.08,3.98,1.61,5.8,1.69,1.81,4.05,2.02,5.68,2.02h.21c2.24-.03,4.56-.04,7.1-.04,5.12,0,10.33.05,15.37.1,2.84.03,5.67.06,8.51.08h.07c1.59-.02,3.18-.04,4.77-.06,2.95-.04,6-.08,8.99-.08.97,0,1.95,0,2.92.01h.15c.81,0,3.28,0,5.04-1.84,1.77-1.84,1.67-4.26,1.64-5.05-.16-4.09-.16-7.75,0-11.21.07-1.52-.02-3.75-1.67-5.48-1.82-1.91-4.38-1.91-5.22-1.91-.09,0-.18,0-.27,0-1.27.02-2.59.04-4.04.04-2.84,0-5.75-.05-8.56-.09-1.72-.03-3.44-.05-5.17-.07h-.07Z"/>
  </g>
  <path class="cls-9" d="M204.11,147.83c0-4.26,0-8.52-.01-12.78.39,0,.77,0,1.16,0,3.86,4.32,7.72,8.64,11.43,12.79h-12.57Z"/>
  <path class="cls-8" d="M141.47,120.68c2.56-4.76,5.13-9.53,7.69-14.29.21.06.42.12.64.19,0,7.5,0,15,0,22.49-3-2.58-5.87-5.28-8.33-8.39Z"/>
  <path class="cls-4" d="M204.14,94.75c-.1-13.54-2.84-10.35,10.95-10.57-3.54,3.63-6.81,7.55-10.95,10.57Z"/>
  <path class="cls-4" d="M205.25,135.04c-.39,0-.77,0-1.16,0,.01-.31.02-.61.04-.92.37.3.75.61,1.12.91Z"/>
  <path class="cls-6" d="M186.93,116.53c-.47-1.4-.49-2.79,0-4.19.59,1.4.59,2.79,0,4.19Z"/>
</svg>